<svg width="120" height="120" viewBox="0 0 120 120" fill="none" xmlns="http://www.w3.org/2000/svg">
<rect width="120" height="120" rx="40" fill="#F28C1B"/>
<path fill-rule="evenodd" clip-rule="evenodd" d="M60.0178 59.63C59.7781 64.3449 59.773 68.829 59.2558 73.2545C58.7791 77.3325 54.6817 80.6752 50.6073 81.1453C47.418 81.5126 44.6354 80.8791 42.076 78.871C37.7467 75.4756 36.8245 68.136 40.2816 63.8572C42.566 61.0309 45.443 59.5381 49.1294 59.6158C52.6256 59.687 56.1241 59.63 60.0178 59.63ZM32.3709 56.5377C25.2257 65.2836 25.7258 77.1022 33.2214 85.2872C39.6225 92.2766 50.5273 94.1825 58.8272 89.4693C59.0681 89.3309 59.3894 89.3321 59.734 89.2558C59.781 90.2353 59.8216 91.0801 59.8614 91.9255H70.2819V48.8065H68.798C62.0957 48.8065 55.3924 48.7483 48.6907 48.8233C42.1099 48.8955 36.5787 51.3894 32.3709 56.5377Z" fill="white"/>
<path fill-rule="evenodd" clip-rule="evenodd" d="M65.6162 18.0203C79.862 20.2871 90.5704 27.773 97.2924 40.5616C103.34 52.0643 103.699 64.0525 99.0455 76.1955C98.8499 76.7066 98.6492 77.4365 98.8643 77.8457C99.8132 79.6621 100.915 81.3988 102.061 83.3352C109.918 69.2478 110.528 50.0321 100.569 34.4531C91.367 20.0621 78.0225 12.7065 60.7663 11.6378C61.8355 13.5139 62.7856 15.0623 63.6113 16.6745C64.061 17.5529 64.6708 17.87 65.6162 18.0203Z" fill="white"/>
<path fill-rule="evenodd" clip-rule="evenodd" d="M19.7798 77.6875C20.307 76.8461 20.393 76.1397 20.0195 75.1576C17.3028 68.0185 16.61 60.6409 17.8907 53.1205C20.9834 34.9675 35.0334 21.04 53.1236 18.0763C53.5469 18.0071 54.1332 17.8866 54.3195 17.5865C55.4609 15.7331 56.5095 13.8211 57.7389 11.665C40.5498 13.0506 27.2306 20.5681 18.4628 35.1766C9.3054 50.4343 9.25684 66.3136 16.8386 82.7437C17.949 80.8221 18.816 79.2251 19.7798 77.6875Z" fill="white"/>
<path fill-rule="evenodd" clip-rule="evenodd" d="M24.9778 84.7865C24.1069 86.2547 23.3487 87.6641 22.4572 88.9828C21.8788 89.8398 21.9118 90.3973 22.596 91.2254C39.0713 111.166 68.5973 114.505 89.0388 98.7019C92.0089 96.4063 94.7171 93.8364 97.0554 90.8655C96.0083 89.0824 94.9953 87.3558 93.9143 85.5168C84.937 96.8243 73.5424 102.911 59.2638 102.761C44.9407 102.61 33.654 96.2291 24.9778 84.7865Z" fill="white"/>
<path fill-rule="evenodd" clip-rule="evenodd" d="M69.5745 46.7343C70.4776 46.7488 70.8753 46.5247 71.2088 45.5934C72.5664 41.8021 75.2543 39.4732 79.255 38.821C80.6332 38.597 82.0346 38.5212 83.4956 38.371V27.7223C72.7521 25.4553 59.2185 36.2988 59.9118 46.7144C63.1236 46.7144 66.3497 46.6824 69.5745 46.7343Z" fill="white"/>
<path fill-rule="evenodd" clip-rule="evenodd" d="M72.5374 59.316H80.7045V48.7103H72.5374V59.316Z" fill="white"/>
</svg>
